<svg id="Layer_1" viewBox="0 0 24 24" xmlns="http://www.w3.org/2000/svg" data-name="Layer 1"><path d="m18.5 8c.276 0 .5.224.5.5v6.876c0 .297-.212.551-.505.604-.286.052-.579-.111-.683-.39l-1.812-4.833v4.743c0 .276-.224.5-.5.5s-.5-.224-.5-.5v-6.88c0-.296.212-.55.503-.603.294-.055.579.11.683.387l1.814 4.837v-4.742c0-.276.224-.5.5-.5zm-16.75 8h-.75c-.551 0-1-.449-1-1v-6c0-.551.449-1 1-1h.259c1.241 0 2.25 1.009 2.25 2.25 0 .603-.239 1.152-.626 1.556.668.391 1.118 1.116 1.118 1.944 0 1.241-1.009 2.25-2.25 2.25zm-.75-4.5h.259c.689 0 1.25-.561 1.25-1.25s-.561-1.25-1.25-1.25h-.259zm2 2.25c0-.689-.561-1.25-1.25-1.25h-.75v2.5h.75c.689 0 1.25-.561 1.25-1.25zm-.375-7.783c.256.097.547-.029.646-.287.21-.547.53-1.038.95-1.458.878-.879 2.09-1.323 3.334-1.216.47.046.92-.144 1.226-.507.802-.953 1.975-1.499 3.218-1.499s2.416.546 3.217 1.498c.307.364.749.549 1.228.508 1.23-.108 2.455.336 3.334 1.216.419.42.739.911.95 1.458.1.26.396.385.646.286.258-.099.386-.389.287-.646-.263-.679-.658-1.286-1.177-1.805-1.088-1.088-2.604-1.638-4.127-1.505-.152.012-.281-.042-.376-.155-.992-1.179-2.443-1.854-3.982-1.854s-2.99.676-3.982 1.854c-.096.113-.225.167-.376.155-1.535-.132-3.04.417-4.127 1.505-.519.52-.915 1.127-1.176 1.806-.099.258.029.547.287.646zm21.375 4.533v3c0 1.378-1.121 2.5-2.5 2.5h-.5c-.552 0-1-.449-1-1v-6c0-.551.448-1 1-1h.5c1.379 0 2.5 1.122 2.5 2.5zm-1 0c0-.827-.673-1.5-1.5-1.5h-.5v6h.5c.827 0 1.5-.673 1.5-1.5zm-9.682-1.391 1.121 6.304c.049.272-.133.531-.404.58-.266.049-.533-.131-.58-.405l-.282-1.587h-2.345l-.282 1.587c-.048.271-.308.451-.58.405-.272-.048-.453-.308-.405-.58l1.122-6.305c.173-1 .979-1.107 1.317-1.107s1.145.108 1.318 1.109zm-.323 3.891-.661-3.718c-.033-.186-.062-.282-.334-.282s-.3.096-.333.28l-.662 3.72h1.989zm8.38 5.034c-.257-.102-.547.028-.646.286-.211.548-.531 1.039-.95 1.458-.879.879-2.093 1.321-3.334 1.216-.469-.045-.921.144-1.228.508-.801.952-1.974 1.498-3.217 1.498s-2.416-.546-3.218-1.498c-.306-.363-.755-.55-1.226-.508-1.247.103-2.457-.337-3.335-1.216-.419-.42-.739-.911-.95-1.458-.1-.258-.39-.385-.646-.287-.258.1-.386.389-.287.646.262.679.657 1.286 1.176 1.806 1.087 1.088 2.595 1.635 4.127 1.505.148-.007.28.042.375.156.993 1.178 2.444 1.854 3.982 1.854s2.99-.676 3.982-1.854c.095-.112.23-.167.376-.155 1.547.136 3.039-.417 4.127-1.505.519-.519.914-1.126 1.177-1.805.099-.258-.029-.547-.287-.646zm-13.453-5.873.915 3.201c.076.265-.078.542-.344.618-.258.075-.543-.076-.618-.344l-.903-3.16c-.074.007-.146.022-.222.022h-.75v3c0 .276-.224.5-.5.5s-.5-.224-.5-.5v-6.5c0-.551.449-1 1-1h.75c1.241 0 2.25 1.009 2.25 2.25 0 .81-.434 1.515-1.078 1.911zm.078-1.911c0-.689-.561-1.25-1.25-1.25h-.75v2.5h.75c.689 0 1.25-.561 1.25-1.25z"/></svg>